<svg width="0" height="0" class="hide">
	<symbol id="lc_recsearch" viewBox="0 0 24 24">
		<title>Icon in a shape of a magnifying glass that triggers "Search in a document"</title>
        <path d="m9.75 3c-3.7279 0-6.75 3.0221-6.75 6.75s3.0221 6.75 6.75 6.75c1.5946 0 3.0637-0.57542 4.2188-1.5l6 6 1.0312-1.0312-6-6c0.92458-1.155 1.5-2.6242 1.5-4.2188 0-3.7279-3.0221-6.75-6.75-6.75zm0 1.5a5.25 5.25 0 0 1 5.25 5.25 5.25 5.25 0 0 1-5.25 5.25 5.25 5.25 0 0 1-5.25-5.25 5.25 5.25 0 0 1 5.25-5.25z" fill="#4d4d4d"/>
	</symbol>
	<symbol id="lc_bold_branding" viewBox="0 0 24 24">
		<title>bold formatting</title>
		<path d="m4 2v20h4 6a6 6 0 0 0 6-6 6 6 0 0 0 -3.082031-5.234375c.676938-.9140426 1.082031-2.0408676 1.082031-3.265625 0-3.0375661-2.462434-5.5-5.5-5.5h-4.5zm4 3h4.5c1.380712 0 2.5 1.1192881 2.5 2.5s-1.119288 2.5-2.5 2.5h-4.5zm0 8h4.5 1.5a3 3 0 0 1 3 3 3 3 0 0 1 -3 3h-6z" fill="#696969"/>
	</symbol>
</svg>
